<svg xmlns="http://www.w3.org/2000/svg" viewBox="0 0 24 24">
  <g transform="translate(-33 -3) scale(0.03)">
    <path
      fill="white"
      d="M1191.18,271.73C1222.97,244.883 1267.52,234.577 1309.97,248.371C1334.94,256.487 1356.71,272.302 1372.15,293.551C1356.71,272.302 1348.4,246.712 1348.4,220.448C1348.4,167.592 1381.44,122.393 1427.98,104.399C1433.68,103.217 1439.38,103.34 1442.47,107.07C1447.59,113.239 1460.93,119.625 1472.77,119.787C1485.65,119.963 1499.54,109.217 1502.49,107.07C1506.72,103.987 1511.63,103.382 1516.27,103.908C1563.48,121.56 1597.14,167.104 1597.14,220.448C1597.14,246.712 1588.82,272.302 1573.39,293.551C1588.82,272.302 1610.59,256.487 1635.57,248.371C1675.62,235.357 1717.53,243.795 1748.85,267.337C1750.47,268.554 1752.06,269.812 1753.62,271.109C1759.12,275.687 1764.26,280.757 1768.94,286.28C1773.89,292.835 1780.15,303.298 1775.64,309.663C1771.01,316.203 1768.3,330.738 1771.2,342.216C1774.37,354.706 1788.34,365.344 1791.18,367.632C1795.1,370.796 1796.96,375.163 1797.72,379.601C1792.72,426.948 1760.61,469.285 1712.44,484.937C1687.46,493.053 1660.55,493.053 1635.57,484.937C1660.55,493.053 1682.32,508.868 1697.76,530.117C1726.28,569.378 1728.48,619.791 1707.69,660.221C1703.5,666.794 1697.29,673.942 1690.71,672.539C1682.88,670.866 1668.45,674.116 1659.05,681.323C1648.83,689.165 1644.58,706.208 1643.6,709.716C1641.61,716.849 1635.47,720.929 1629.67,723.282C1581.3,736.359 1527.71,719.248 1496.52,676.322C1481.08,655.074 1472.77,629.484 1472.77,603.22C1472.77,629.484 1464.45,655.074 1449.02,676.322C1418.82,717.888 1367.61,735.249 1320.48,724.434C1318.93,723.01 1317.85,721.311 1317.51,719.283C1316.16,711.382 1307.8,699.184 1297.63,693.123C1286.56,686.529 1269.16,688.889 1265.53,689.276C1262.68,689.581 1260.02,689.137 1257.58,688.216C1217.6,645.565 1212.16,579.146 1247.78,530.117C1263.22,508.868 1284.99,493.053 1309.97,484.937C1284.99,493.053 1258.08,493.053 1233.1,484.937C1197.99,473.528 1171.41,447.942 1157.65,416.573C1158.14,417.37 1158.41,417.818 1158.41,417.818C1158.41,417.818 1152.89,405.078 1151.24,396.685C1149.99,390.366 1147.2,371.7 1156.23,367.549C1163.52,364.203 1173.14,352.972 1176.36,341.578C1179.86,329.18 1173.08,312.979 1171.77,309.58C1166.65,296.328 1180.47,282.96 1182.26,280.911C1183.92,279.001 1187.38,275.359 1191.18,271.73Z"
    />
  </g>
</svg>