<svg
  width="200"
  height="200"
  viewBox="0 0 200 200"
  xmlns="http://www.w3.org/2000/svg"
>
  <g fill="none" stroke="#c9a6dd" stroke-width="3" stroke-linecap="round" stroke-linejoin="round">
    <!-- Center circle -->
    <circle cx="100" cy="100" r="10" />

    <!-- Petal 1 -->
    <path d="M100 40
             C 85 45, 78 60, 80 75
             C 82 90, 92 100, 100 105
             C 108 100, 118 90, 120 75
             C 122 60, 115 45, 100 40 Z" />

    <!-- Petal 2 -->
    <path d="M40 100
             C 45 85, 60 78, 75 80
             C 90 82, 100 92, 105 100
             C 100 108, 90 118, 75 120
             C 60 122, 45 115, 40 100 Z" />

    <!-- Petal 3 -->
    <path d="M100 160
             C 85 155, 78 140, 80 125
             C 82 110, 92 100, 100 95
             C 108 100, 118 110, 120 125
             C 122 140, 115 155, 100 160 Z" />

    <!-- Petal 4 -->
    <path d="M160 100
             C 155 85, 140 78, 125 80
             C 110 82, 100 92, 95 100
             C 100 108, 110 118, 125 120
             C 140 122, 155 115, 160 100 Z" />

    <!-- Petal 5 (diagonal) -->
    <path d="M135 55
             C 123 55, 115 63, 112 75
             C 109 87, 112 97, 118 105
             C 126 103, 135 97, 140 87
             C 145 77, 144 63, 135 55 Z" />

    <!-- Petal 6 (diagonal) -->
    <path d="M65 55
             C 77 55, 85 63, 88 75
             C 91 87, 88 97, 82 105
             C 74 103, 65 97, 60 87
             C 55 77, 56 63, 65 55 Z" />
  </g>
</svg>